<svg version="1.1" xmlns="http://www.w3.org/2000/svg" xmlns:xlink="http://www.w3.org/1999/xlink" >
  <defs>
    <path id="eye" class="eye" d="M8.8,1.2L8.5,1.1L8.2,1.2L8.1,1.5l0.1,0.3c0.1,0.1,0.1,0.1,0.3,0.1s0.2,0,0.3-0.1l0.1-0.3L8.8,1.2z" />
    <rect id="closed-eye" class="eye" x="8.2" y="1.1" width="0.4" height="0.8"/>
    <g id="face-sides" class="face">
      <rect class="skin" x="7" y="-0.3" width="3.1" height="9.9" />
      <rect id="hair" class="hair" x="7" y="-5.1" width="3.1" height="4.9" />
      <use class="hair" xlink:href="#hair" transform="translate(0, 10.8)"/>
    </g>
    <g id="face-contents" class="face">
      <use xlink:href="#face-sides"/>
      <use class="right" xlink:href="#eye"/>
      <use class="left" xlink:href="#eye" transform="translate(0 2.4)"/>
    </g>
    <g id="face-contents-eyes-closed" class="face">
      <use xlink:href="#face-sides"/>
      <use class="right" xlink:href="#closed-eye"/>
      <use class="left" xlink:href="#closed-eye" transform="translate(0 2.4)"/>
    </g>
    <!-- important bit here, for animating this path -->
    <path id="face-outline" class="outline no-fill"         d="M10.1-2.4H7v4.9 c 0.1,1.3,1.2,1.2 ,3.1,0V-2.4z"/>
    <path id="face-outline-crashed" class="outline no-fill" d="M10.1-2.4H7v4.9 c  0 , 0 , 0 , 0  ,3.1,0V-2.4z"/>
    <clipPath id="face-outline-clip">
      <use xlink:href="#face-outline"/>
    </clipPath>
    <clipPath id="face-outline-clip-crashed">
      <use xlink:href="#face-outline-crashed"/>
    </clipPath>
    <g id="face-contents-clipped" clip-path="url(#face-outline-clip)">
      <use xlink:href="#face-contents"/>
    </g>
    <g id="face-contents-clipped-crashed" clip-path="url(#face-outline-clip-crashed)">
      <!-- animate "transform" too -->
      <use xlink:href="#face-contents" transform="translate(0 -2.6)"/>
    </g>
  </defs>
  <g id="bosh">
    <g id="sled" class="sled outline">
      <path class="whole" d="M16.2-1.2c-0.7-0.7-1.6-1.1-2.6-1.1c-1,0-1.9,0.4-2.6,1.1l-0.6,0.8H0l-0.2,0.2L-0.3,0l0.2,0.2c0,0.1,0.1,0.1,0.2,0.1h1.7v4h-1.9c-0.1,0-0.2,0.1-0.2,0.1l-0.1,0.3L-0.5,5c0.1,0.1,0.2,0.1,0.2,0.1h13.9c1,0,1.9-0.4,2.6-1c0.8-0.8,1.1-1.6,1.1-2.6C17.3,0.4,16.9-0.4,16.2-1.2z M9,4.4H2.5v-4H9V4.4zM15.7,3.5c-0.6,0.6-1.2,0.9-2.1,0.9H9.8v-4H10L9.9,0.7L10,1l0.2,0.1l0.2,0l0.1-0.2l0.1-0.5h0.9l0.3-0.1L12.2,0l-0.1-0.2l-0.2-0.1h-0.5l0.2-0.2c0.6-0.6,1.3-0.9,2.1-0.9c0.9,0,1.6,0.3,2.1,0.9c0.6,0.6,0.8,1.2,0.8,2.1C16.5,2.2,16.2,3,15.7,3.5z"/>
    </g>
    <g id="leg" class="leg outline">
      <path class="pants" d="M4.8-0.7H0.4L0-0.8l-0.5,0.2l-0.1,0.2L-0.7,0l0.1,0.4l0.1,0.1L0,0.7l0.3-0.1h4.6"/>
      <path class="foot" d="M4.8,0.6h2.4v-2.6L6.7-2L6-0.7H4.8"/>
    </g>
    <g id="face">
      <use xlink:href="#face-contents-clipped"/>
      <use xlink:href="#face-outline"/>
    </g>
    <g id="body">
      <rect class="torso outline" x="0" y="-2.2" width="7" height="4.4"/>
      <g class="neck">
        <rect class="scarf1 even" x="5.2" y="1.5" width="2" height="1"/>
        <rect class="scarf2 odd"  x="5.2" y="0.5" width="2" height="1"/>
        <rect class="scarf3 even" x="5.2" y="-0.5" width="2" height="1"/>
        <rect class="scarf4 odd"  x="5.2" y="-1.5" width="2" height="1"/>
        <rect class="scarf5 even" x="5.2" y="-2.5" width="2" height="1"/>
      </g>
      <g class="hat">
        <path class="top outline" d="M13.2,0.4V-0.2c-0.1-0.6-0.3-1.1-0.8-1.6C12-2.2,11.6-2.4,11.1-2.5l-0.2,0h-0.3v5.2h0.5V2.7c0.5-0.1,0.9-0.4,1.3-0.8l0.5-0.6C13.1,0.9,13.1,0.5,13.2,0z"/>
        <path class="bottom" d="M10.6-2.6v5.3"/>
        <path class="ball" d="M13.2,0L13.2,0v0.2l0.1,0.1l0.1,0.2c0.1,0.1,0.3,0.2,0.5,0.3c0.2,0,0.4-0.1,0.5-0.2c0.1-0.1,0.2-0.3,0.2-0.5c0-0.2-0.1-0.4-0.2-0.6s-0.3-0.2-0.5-0.2s-0.4,0.1-0.5,0.2l-0.2,0.3V0z"/>
      </g>
    </g>
    <g id="arm" class="arm outline">
      <path class="sleeve" d="M5-0.7H0l-0.4,0.1l-0.2,0.2L-0.7,0l0.1,0.4l0.1,0.2l0.3,0.2H0h5"/>
      <path class="hand" d="M5,0.8h1.6c0.2-0.1,0.3-0.1,0.4-0.2L7.1,0.4L7.1,0c0-0.2-0.1-0.4-0.2-0.5C6.8-0.7,6.6-0.7,6.4-0.7L6-0.7c0.2-0.4,0.1-0.6-0.1-0.6C5.7-1.2,5.6-1,5.5-0.7H5"/>
    </g>
  </g>
  <g id="bosh-crashed">
    <g id="sled-broke" class="sled broke outline">
      <path class="top" d="M10.9-1.2l-0.6,0.8H0l-0.3,0.2L-0.4,0l0.1,0.3C-0.2,0.3-0.1,0.4,0,0.4h1.7v0.8l0.7-0.5V0.3H9v0.4l0.8,0.5V0.3H10L9.9,0.7L10,1l0.2,0.1l0.2,0l0.1-0.2l0.1-0.6h0.9l0.2-0.1L12.1,0L12-0.3l-0.2-0.1h-0.5l0.2-0.2c0.6-0.6,1.2-0.9,2.1-0.9s1.5,0.3,2.1,0.9l0.2,0.2L16.9,0c-0.2,0.4-0.5-0.9-0.8-1.1c-0.7-0.8-1.6-1.2-2.6-1.2S11.7-1.9,10.9-1.2z"/>
      <path class="tail" d="M1.4-0.8L0.9-0.1l1.5,2.9L0.4,3.3L0.2,3.5c0,0.1,0,0.2,0,0.2L0.5,4h0.2l6.6-1.8L6.1,1.8L3,2.7L1.4-0.8z"/>
      <path class="middle" d="M5.9,1.8L9,1l0.4-0.9L6.1,1L5.9,1.8z"/>
      <path class="nose" d="M16.7-0.1l-1-0.7c0.2,0.6,0.3,1.2,0.1,2c-0.2,0.8-0.7,1.4-1.4,1.7S13,3.4,12.2,3.2l-3.7-1V2.1L7.9,1.6L7.8,1.9L4.7,1l0.6,1L12,3.9C13,4.2,13.9,4,14.8,3.6c0.9-0.5,1.5-1.2,1.7-2.2C16.7,0.9,16.7,0.4,16.7-0.1z"/>
    </g>
    <use xlink:href="#leg"/>
    <g id="face-crashed">
      <use xlink:href="#face-contents-clipped-crashed"/>
      <use xlink:href="#face-outline-crashed"/>
    </g>
    <use xlink:href="#body"/>
    <use xlink:href="#arm"/>
  </g>
</svg>
