<svg version="1.1" xmlns="http://www.w3.org/2000/svg" xmlns:xlink="http://www.w3.org/1999/xlink" >
  <style type="text/css">
    <![CDATA[
      .outline {
        stroke: black;
        stroke-width: 0.05;
      }
      .face .skin {
        fill: white;
      }
      .face .hair {
        fill: black;
      }
      .eye {
        fill: black;
      }
      .torso {
        fill: white;
      }
      .neck-scarf .back {
        fill: white;
      }
      .neck-scarf .front {
        fill: #D20202;
      }
      .hat .ball {
        fill: black;
      }
      .hat .top {
        fill: white;
      }
      .hat .bottom {
        stroke: black;
        stroke-width: 2;
        stroke-linecap: round;
      }
      .sled {
        fill: white;
      }
      .arm .sleeve {
        fill: black;
      }
      .arm .hand {
        fill: white;
      }
      .leg .pants {
        fill: black;
      }
      .leg .foot {
        fill: white;
      }
    ]]>
  </style>
  <defs>
    <path id="eye" class="eye" d="M17.5,2.5l-0.6-0.2l-0.6,0.2l-0.2,0.6l0.2,0.6c0.1,0.2,0.3,0.2,0.6,0.2s0.4-0.1,0.6-0.2l0.2-0.6L17.5,2.5z" />
    <g id="face-contents" class="face">
      <path class="skin" d="M20.1,11.2V-4.7h-6.2h0v15.9H20.1z"/>
      <path class="hair" d="M14-4.8v4.5h6.2v-4.5H14z"/>
      <use class="right" xlink:href="#eye"/>
      <use class="left" xlink:href="#eye" transform="translate(0 4.8)"/>
    </g>
    <!-- important bit here, for animating this path -->
    <path id="face-outline" class="outline"         d="M20.2-4.7H14v9.8 c 0.2,2.6,2.3,2.5 ,6.2,0V-4.7z"/>
    <path id="face-outline-crashed" class="outline" d="M20.2-4.7H14v9.8 c  0 , 0 , 0 , 0  ,6.2,0V-4.7z"/>
    <clipPath id="face-outline-clip">
      <use xlink:href="#face-outline"/>
    </clipPath>
    <clipPath id="face-outline-clip-crashed">
      <use xlink:href="#face-outline-crashed"/>
    </clipPath>
    <g id="face-contents-clipped" clip-path="url(#face-outline-clip)">
      <use xlink:href="#face-contents"/>
    </g>
    <g id="face-contents-clipped-crashed" clip-path="url(#face-outline-clip-crashed)">
      <!-- animate "transform" too -->
      <use xlink:href="#face-contents" transform="translate(0 -5)"/>
    </g>
  </defs>
  <g id="sled" class="sled outline">
    <path class="whole" d="M32.4-2.3c-1.4-1.4-3.2-2.2-5.3-2.2c-2,0-3.8,0.8-5.2,2.2l-1.2,1.5H0l-0.4,0.3L-0.7,0l0.3,0.5C-0.3,0.7-0.2,0.7,0,0.7h3.4v8h-3.8c-0.2,0-0.3,0.1-0.5,0.2l-0.3,0.6L-1,10c0.2,0.2,0.3,0.2,0.5,0.2h27.7c2,0,3.8-0.8,5.2-2.1c1.5-1.5,2.2-3.2,2.2-5.2C34.6,0.8,33.8-0.8,32.4-2.3zM18,8.8H5v-8h13V8.8zM31.3,7.1c-1.1,1.1-2.5,1.7-4.2,1.7h-7.6v-8H20l-0.2,0.7L20,2l0.5,0.3L21,2.2l0.3-0.5l0.3-1h1.9l0.6-0.2L24.3,0l-0.2-0.5l-0.5-0.2h-1l0.5-0.5C24.2-2.4,25.6-3,27.2-3c1.7,0,3.1,0.6,4.2,1.8C32.6,0,33.1,1.3,33.1,3C33,4.5,32.5,6,31.3,7.1z"/>
  </g>
  <g id="sled-broke" class="sled broke outline">
    <path class="top" d="M21.8-2.3l-1.2,1.5H0l-0.6,0.3L-0.8,0l0.2,0.6c0.2,0.1,0.3,0.2,0.5,0.2h3.4v1.6l1.5-1V0.7h13.1v0.7l1.5,1V0.7h0.5l-0.2,0.8L19.9,2l0.5,0.3l0.5-0.1l0.3-0.4l0.3-1.1h1.9l0.5-0.2L24.2,0L24-0.5l-0.5-0.2h-1L23-1.2C24.1-2.4,25.5-3,27.1-3s3,0.6,4.2,1.8l0.4,0.5l2.2,0.8c-0.40.8-1-1.7-1.6-2.3c-1.5-1.5-3.2-2.3-5.2-2.3S23.3-3.7,21.8-2.3z"/>
    <path class="tail" d="M2.7-1.5l-1,1.3l2.9,5.9l-3.8,1L0.4,7.1c-0.1,0.2-0.1,0.3,0,0.5l0.5,0.5h0.5l13.1-3.5l-2.3-0.9L6,5.4L2.7-1.5z"/>
    <path class="middle" d="M11.8,3.7L17.9,2l0.7-1.8L12.1,2L11.8,3.7z"/>
    <path class="nose" d="M33.4-0.1l-2-1.4C31.9-0.2,32,1,31.6,2.4c-0.4,1.6-1.4,2.8-2.8,3.5s-2.9,0.9-4.5,0.5L17,4.3V4.2l-1.3-0.9l-0.1,0.6L9.3,2l1.2,1.9L24,7.8c1.9,0.6,3.8,0.3,5.6-0.6c1.8-0.9,3-2.4,3.5-4.3C33.4,1.8,33.4,0.8,33.4-0.1z"/>
  </g>
  <g id="body">
    <path class="torso outline" d="M14.2-4.3H0v8.8h14.2V-4.3z"/>
    <g class="neck-scarf">
      <rect class="back" x="10.3" y="-5" width="4" height="10"/>
      <path class="front" d="M14.3-3v-2h-4v2H14.3z M14.3-1h-4v2h4V-1z M10.3,3v2h4V3H10.3z"/>
    </g>
    <g class="hat">
      <path class="top outline" d="M26.3,0.9V0.5c-0.1-1.2-0.6-2.3-1.5-3.2c-0.8-0.8-1.6-1.2-2.6-1.5l0,0l-0.4-0.1h-0.6V6.3h1V6.2c1-0.2,1.9-0.8,2.6-1.6l1-1.3c0.3-0.6,0.4-1.4,0.5-2.2v0V0.9L26.3,0.9z"/>
      <path class="bottom" d="M21.2-4.3V6.3"/>
      <path class="ball" d="M26.3,0.9L26.3,0.9v0.3l0.1,0.1l0.3,0.5c0.2,0.2,0.6,0.4,1,0.5c0.4-0.1,0.8-0.2,1-0.5c0.2-0.2,0.4-0.6,0.5-1c0-0.5-0.2-0.8-0.5-1.1s-0.6-0.4-1-0.4s-0.8,0.2-1,0.4l-0.4,0.7V0.9z"/>
    </g>
  </g>
  <g id="arm" class="arm outline">
    <path class="sleeve" d="M9.9-1.4H0l-0.8,0.2l-0.4,0.4L-1.4,0l0.2,0.8L-1,1.1l0.6,0.3h0.3h9.9"/>
    <path class="hand" d="M9.9,1.4H13c0.4-0.2,0.7-0.2,0.8-0.4L14,0.8L14.2,0c0-0.4-0.1-0.8-0.4-1c-0.3-0.3-0.6-0.4-1-0.4L12-1.3c0.3-0.8,0.2-1.1-0.2-1.1c-0.4,0.1-0.7,0.4-0.9,1h-1"/>
  </g>
  <g id="leg" class="leg outline">
    <path class="pants" d="M9.6-1.3H0.7L0-1.5l-1,0.4l-0.3,0.4L-1.5,0l0.3,0.8L-1.1,1l1,0.5l0.6-0.1h9.1"/>
    <path class="foot" d="M9.6,1.4h4.8v-5.2l-1.1-0.1l-1.4,2.6H9.7"/>
  </g>
  <g id="face">
    <use xlink:href="#face-outline"/>
    <use xlink:href="#face-contents-clipped"/>
  </g>
  <g id="face-crashed">
    <use xlink:href="#face-outline-crashed"/>
    <use xlink:href="#face-contents-clipped-crashed"/>
  </g>
</svg>
